<svg width="14" height="14" viewBox="0 0 14 14" fill="none" xmlns="http://www.w3.org/2000/svg">
<path d="M13.1361 10.396C13.3515 10.6115 13.451 10.8766 13.4344 11.1915C13.451 11.5064 13.3515 11.7716 13.1361 11.987L12.3406 12.7825C12.1251 12.998 11.8517 13.1057 11.5202 13.1057C11.2219 13.1057 10.965 12.998 10.7496 12.7825L7.16986 9.2028L3.59014 12.7825C3.37469 12.998 3.10952 13.0974 2.79464 13.0808C2.47976 13.0974 2.21459 12.998 1.99915 12.7825L1.20365 11.987C0.988205 11.7716 0.880481 11.4981 0.880481 11.1667C0.880481 10.8684 0.988205 10.6115 1.20365 10.396L4.78338 6.81631L1.20365 3.23658C0.988205 3.02114 0.872195 2.75597 0.855622 2.44109C0.872195 2.1262 0.988205 1.86104 1.20365 1.64559L1.99915 0.850097C2.21459 0.63465 2.47147 0.526927 2.76978 0.526927C3.10124 0.526927 3.37469 0.63465 3.59014 0.850097L7.16986 4.42982L10.7496 0.850097C10.965 0.63465 11.2219 0.526927 11.5202 0.526927C11.8517 0.526927 12.1251 0.63465 12.3406 0.850097L13.1361 1.64559C13.3515 1.86104 13.451 2.1262 13.4344 2.44109C13.451 2.75597 13.3515 3.02114 13.1361 3.23658L9.55635 6.81631L13.1361 10.396Z" fill="#484848"/>
</svg>
