<svg width="21" height="19" viewBox="0 0 21 19" fill="none" xmlns="http://www.w3.org/2000/svg">
<path d="M20.0524 0.25C20.3336 0.25 20.4742 0.390625 20.4742 0.671875V3.44922C20.4742 3.56641 20.4274 3.67187 20.3336 3.76562C20.2633 3.83594 20.1696 3.87109 20.0524 3.87109C19.9352 3.87109 19.8414 3.83594 19.7711 3.76562L19.1735 3.16797L17.4508 4.85547C17.9664 5.67578 18.2242 6.57812 18.2242 7.5625C18.2242 8.96875 17.7321 10.1641 16.7477 11.1484C15.7633 12.1328 14.568 12.625 13.1617 12.625C11.9899 12.625 10.9469 12.2617 10.0328 11.5352C10.525 10.9492 10.9 10.2812 11.1578 9.53125C11.6969 10.0938 12.3649 10.375 13.1617 10.375C13.9352 10.375 14.5914 10.1055 15.1305 9.56641C15.693 9.00391 15.9742 8.33594 15.9742 7.5625C15.9742 6.78906 15.693 6.13281 15.1305 5.59375C14.5914 5.03125 13.9352 4.75 13.1617 4.75C12.3649 4.75 11.6969 5.03125 11.1578 5.59375C10.9 4.86719 10.525 4.19922 10.0328 3.58984C10.9469 2.86328 11.9899 2.5 13.1617 2.5C14.1461 2.5 15.0485 2.75781 15.8688 3.27344L17.5563 1.55078L16.9586 0.953125C16.8414 0.835938 16.818 0.695313 16.8883 0.53125C16.9586 0.34375 17.0875 0.25 17.275 0.25H20.0524ZM1.70081 3.97656C2.68518 2.99219 3.88049 2.5 5.28674 2.5C6.69299 2.5 7.88831 2.99219 8.87268 3.97656C9.85706 4.96094 10.3492 6.15625 10.3492 7.5625C10.3492 8.75781 9.97424 9.8125 9.22424 10.7266C8.49768 11.6406 7.56018 12.2266 6.41174 12.4844V14.3125H7.67737C7.95862 14.3125 8.09924 14.4531 8.09924 14.7344V16.1406C8.09924 16.4219 7.95862 16.5625 7.67737 16.5625H6.41174V17.8281C6.41174 18.1094 6.27112 18.25 5.98987 18.25H4.58362C4.30237 18.25 4.16174 18.1094 4.16174 17.8281V16.5625H2.89612C2.61487 16.5625 2.47424 16.4219 2.47424 16.1406V14.7344C2.47424 14.4531 2.61487 14.3125 2.89612 14.3125H4.16174V12.4844C3.01331 12.2266 2.06409 11.6406 1.31409 10.7266C0.587524 9.8125 0.224243 8.75781 0.224243 7.5625C0.224243 6.15625 0.716431 4.96094 1.70081 3.97656ZM3.28284 9.56641C3.84534 10.1055 4.51331 10.375 5.28674 10.375C6.06018 10.375 6.71643 10.1055 7.25549 9.56641C7.81799 9.00391 8.09924 8.33594 8.09924 7.5625C8.09924 6.78906 7.81799 6.13281 7.25549 5.59375C6.71643 5.03125 6.06018 4.75 5.28674 4.75C4.51331 4.75 3.84534 5.03125 3.28284 5.59375C2.74377 6.13281 2.47424 6.78906 2.47424 7.5625C2.47424 8.33594 2.74377 9.00391 3.28284 9.56641Z" fill="#484848"/>
</svg>
