<svg width="19" height="19" viewBox="0 0 19 19" fill="none" xmlns="http://www.w3.org/2000/svg">
<path d="M18.7789 11.9219C18.943 12.3906 18.861 12.8008 18.5328 13.1523L16.9156 14.5586C16.7047 14.7695 16.4469 14.875 16.1422 14.875H14.3492C13.9742 14.875 13.6696 14.7227 13.4352 14.418L11.818 12.168C11.3024 12.4727 10.7633 12.625 10.2008 12.625C9.52112 12.625 8.90002 12.4375 8.33752 12.0625C7.79846 11.6875 7.38831 11.207 7.10706 10.6211C7.08362 10.5273 7.01331 10.4688 6.89612 10.4453C6.80237 10.4219 6.72034 10.4453 6.65002 10.5156L6.22815 10.9375C6.1344 11.0547 6.12268 11.1719 6.19299 11.2891C6.54456 11.9688 7.03674 12.5312 7.66956 12.9766C8.32581 13.4219 9.05237 13.668 9.84924 13.7148V13.75L11.2906 16.6328C11.4781 17.0078 11.4547 17.3711 11.2203 17.7227C11.0094 18.0742 10.693 18.25 10.2711 18.25H1.97424C1.66956 18.25 1.40002 18.1328 1.16565 17.8984C0.954712 17.6875 0.849243 17.4297 0.849243 17.125V14.2773C0.849243 12.8008 0.942993 11.4883 1.13049 10.3398C1.31799 9.19141 1.62268 8.125 2.04456 7.14062C2.48987 6.13281 3.09924 5.28906 3.87268 4.60938C4.64612 3.90625 5.59534 3.34375 6.72034 2.92188L13.8219 0.285156C14.0563 0.191406 14.1969 0.261719 14.2438 0.496094C14.5719 1.76172 14.1735 2.72266 13.0485 3.37891C13.5406 3.47266 13.9977 3.64844 14.4196 3.90625C14.8649 4.16406 15.2516 4.49219 15.5797 4.89062C15.9078 5.26563 16.1539 5.6875 16.318 6.15625L18.7789 11.9219ZM11.7828 7.87891C11.9469 8.04297 12.1461 8.125 12.3805 8.125C12.6149 8.125 12.8141 8.04297 12.9781 7.87891C13.1422 7.71484 13.2242 7.51562 13.2242 7.28125C13.2242 7.04688 13.1422 6.84766 12.9781 6.68359C12.8141 6.51953 12.6149 6.4375 12.3805 6.4375C12.1461 6.4375 11.9469 6.51953 11.7828 6.68359C11.6188 6.84766 11.5367 7.04688 11.5367 7.28125C11.5367 7.51562 11.6188 7.71484 11.7828 7.87891Z" fill="#484848"/>
</svg>
