<svg width="10" height="19" viewBox="0 0 10 19" fill="none" xmlns="http://www.w3.org/2000/svg">
<path d="M6.75549 14.875H9.84924V17.125C9.84924 17.4297 9.73206 17.6875 9.49768 17.8984C9.28674 18.1328 9.02893 18.25 8.72424 18.25H1.97424C1.66956 18.25 1.40002 18.1328 1.16565 17.8984C0.954712 17.6875 0.849243 17.4297 0.849243 17.125V1.375C0.849243 1.07031 0.954712 0.8125 1.16565 0.601562C1.40002 0.367187 1.66956 0.25 1.97424 0.25H8.72424C9.02893 0.25 9.28674 0.367187 9.49768 0.601562C9.73206 0.8125 9.84924 1.07031 9.84924 1.375V3.625H6.75549C6.56799 3.625 6.47424 3.71875 6.47424 3.90625V4.46875C6.47424 4.65625 6.56799 4.75 6.75549 4.75H9.84924V7H6.75549C6.56799 7 6.47424 7.09375 6.47424 7.28125V7.84375C6.47424 8.03125 6.56799 8.125 6.75549 8.125H9.84924V10.375H6.75549C6.56799 10.375 6.47424 10.4688 6.47424 10.6562V11.2188C6.47424 11.4062 6.56799 11.5 6.75549 11.5H9.84924V13.75H6.75549C6.56799 13.75 6.47424 13.8438 6.47424 14.0312V14.5938C6.47424 14.7812 6.56799 14.875 6.75549 14.875Z" fill="#484848"/>
</svg>
