<svg width="21" height="17" viewBox="0 0 21 17" fill="none" xmlns="http://www.w3.org/2000/svg">
<path d="M10.1031 4.45312C10.1969 4.40625 10.2906 4.38281 10.3844 4.38281C10.4781 4.38281 10.5719 4.40625 10.6656 4.45312L17.1344 9.79688V15.5625C17.1344 15.7266 17.0758 15.8555 16.9586 15.9492C16.8649 16.0664 16.736 16.125 16.5719 16.125H12.6344C12.4703 16.125 12.3297 16.0664 12.2125 15.9492C12.1188 15.832 12.0719 15.7031 12.0719 15.5625V12.1875C12.0719 12.0938 12.0485 12 12.0016 11.9062C11.9547 11.8125 11.8844 11.7422 11.7906 11.6953C11.6969 11.6484 11.6031 11.625 11.5094 11.625H9.2594C9.09534 11.625 8.95471 11.6836 8.83752 11.8008C8.74377 11.8945 8.6969 12.0234 8.6969 12.1875V15.5625C8.6969 15.7031 8.63831 15.832 8.52112 15.9492C8.42737 16.0664 8.29846 16.125 8.1344 16.125H4.1969C4.03284 16.125 3.89221 16.0664 3.77502 15.9492C3.68127 15.8555 3.6344 15.7266 3.6344 15.5625V9.79688L10.1031 4.45312ZM20.3688 8.07422C20.4625 8.16797 20.5094 8.28516 20.5094 8.42578C20.5094 8.51953 20.4742 8.60156 20.4039 8.67188L19.525 9.76172C19.4313 9.87891 19.3258 9.9375 19.2086 9.9375C19.0914 9.9375 18.9977 9.90234 18.9274 9.83203L10.6656 3.01172C10.5719 2.96484 10.4781 2.94141 10.3844 2.94141C10.2906 2.94141 10.1969 2.96484 10.1031 3.01172L1.84143 9.83203C1.77112 9.90234 1.68909 9.9375 1.59534 9.9375C1.45471 9.9375 1.33752 9.87891 1.24377 9.76172L0.364868 8.67188C0.294556 8.60156 0.259399 8.51953 0.259399 8.42578C0.259399 8.28516 0.306274 8.16797 0.400024 8.07422L9.29456 0.761719C9.62268 0.503906 9.98596 0.375 10.3844 0.375C10.7828 0.375 11.1344 0.503906 11.4391 0.761719L14.6031 3.36328V0.796875C14.6031 0.679688 14.6383 0.585938 14.7086 0.515625C14.8024 0.421875 14.9078 0.375 15.025 0.375H16.9938C17.111 0.375 17.2047 0.421875 17.275 0.515625C17.3688 0.585938 17.4156 0.679688 17.4156 0.796875V5.68359L20.3688 8.07422Z" fill="#484848"/>
</svg>
