<svg width="19" height="19" viewBox="0 0 19 19" fill="none" xmlns="http://www.w3.org/2000/svg">
<path d="M18.3922 5.24219L16.775 6.85938C16.5641 7.07031 16.3649 7.07031 16.1774 6.85938L12.275 2.95703C12.0641 2.76953 12.0641 2.57031 12.275 2.35938L13.8922 0.742188C14.2203 0.414063 14.6188 0.25 15.0875 0.25C15.5563 0.25 15.9547 0.414063 16.2828 0.742188L18.3922 2.85156C18.7203 3.17969 18.8844 3.57813 18.8844 4.04688C18.8844 4.51562 18.7203 4.91406 18.3922 5.24219ZM10.8688 3.76562C11.0797 3.55469 11.2789 3.55469 11.4664 3.76562L15.3688 7.66797C15.5797 7.85547 15.5797 8.05469 15.3688 8.26562L6.15784 17.4766L1.86877 18.25C1.58752 18.2969 1.34143 18.2148 1.13049 18.0039C0.919556 17.793 0.837524 17.5469 0.884399 17.2656L1.65784 12.9766L10.8688 3.76562ZM5.24377 11.5C5.0094 11.7344 5.0094 11.9688 5.24377 12.2031C5.47815 12.4375 5.71252 12.4375 5.9469 12.2031L11.361 6.78906C11.5953 6.55469 11.5953 6.32031 11.361 6.08594C11.1266 5.85156 10.8922 5.85156 10.6578 6.08594L5.24377 11.5ZM3.97815 15.1562V13.4688H2.71252L2.29065 15.7188L3.41565 16.8438L5.66565 16.4219V15.1562H3.97815Z" fill="#484848"/>
</svg>
