<svg width="23" height="17" viewBox="0 0 23 17" fill="none" xmlns="http://www.w3.org/2000/svg">
<path d="M9.62659 7.08984C8.85315 7.86328 7.92737 8.25 6.84924 8.25C5.77112 8.25 4.84534 7.86328 4.0719 7.08984C3.29846 6.31641 2.91174 5.39063 2.91174 4.3125C2.91174 3.23437 3.29846 2.30859 4.0719 1.53516C4.84534 0.761719 5.77112 0.375 6.84924 0.375C7.92737 0.375 8.85315 0.761719 9.62659 1.53516C10.4 2.30859 10.7867 3.23437 10.7867 4.3125C10.7867 5.39063 10.4 6.31641 9.62659 7.08984ZM9.55627 9.375C10.6813 9.375 11.6305 9.77344 12.4039 10.5703C13.2008 11.3438 13.5992 12.293 13.5992 13.418V14.4375C13.5992 14.9062 13.4352 15.3047 13.1071 15.6328C12.7789 15.9609 12.3805 16.125 11.9117 16.125H1.78674C1.31799 16.125 0.919556 15.9609 0.591431 15.6328C0.263306 15.3047 0.0992432 14.9062 0.0992432 14.4375V13.418C0.0992432 12.293 0.485962 11.3438 1.2594 10.5703C2.05627 9.77344 3.01721 9.375 4.14221 9.375H4.45862C5.23206 9.75 6.02893 9.9375 6.84924 9.9375C7.66956 9.9375 8.46643 9.75 9.23987 9.375H9.55627ZM19.3649 7.26562C18.7086 7.92188 17.9117 8.25 16.9742 8.25C16.0367 8.25 15.2399 7.92188 14.5836 7.26562C13.9274 6.60938 13.5992 5.8125 13.5992 4.875C13.5992 3.9375 13.9274 3.14063 14.5836 2.48438C15.2399 1.82812 16.0367 1.5 16.9742 1.5C17.9117 1.5 18.7086 1.82812 19.3649 2.48438C20.0211 3.14063 20.3492 3.9375 20.3492 4.875C20.3492 5.8125 20.0211 6.60938 19.3649 7.26562ZM18.6617 9.375C19.7399 9.375 20.6656 9.76172 21.4391 10.5352C22.2125 11.3086 22.5992 12.2344 22.5992 13.3125C22.5992 13.7812 22.4352 14.1797 22.1071 14.5078C21.7789 14.8359 21.3805 15 20.9117 15H14.6891C14.6891 14.9766 14.6891 14.9414 14.6891 14.8945C14.7125 14.8477 14.7242 14.8125 14.7242 14.7891V13.418C14.7242 12.082 14.2555 10.9102 13.318 9.90234C13.9508 9.55078 14.6071 9.375 15.2867 9.375H15.4274C15.9664 9.5625 16.4821 9.65625 16.9742 9.65625C17.4664 9.65625 17.9821 9.5625 18.5211 9.375H18.6617Z" fill="#484848"/>
</svg>
