<svg width="17" height="17" viewBox="0 0 17 17" fill="none" xmlns="http://www.w3.org/2000/svg">
<path d="M15.4742 6.5625C15.7789 6.5625 16.0367 6.67969 16.2477 6.91406C16.4821 7.125 16.5992 7.38281 16.5992 7.6875V8.8125C16.5992 9.11719 16.4821 9.38672 16.2477 9.62109C16.0367 9.83203 15.7789 9.9375 15.4742 9.9375H10.4117V15C10.4117 15.3047 10.2946 15.5625 10.0602 15.7734C9.84924 16.0078 9.59143 16.125 9.28674 16.125H8.16174C7.85706 16.125 7.58752 16.0078 7.35315 15.7734C7.14221 15.5625 7.03674 15.3047 7.03674 15V9.9375H1.97424C1.66956 9.9375 1.40002 9.83203 1.16565 9.62109C0.954712 9.38672 0.849243 9.11719 0.849243 8.8125V7.6875C0.849243 7.38281 0.954712 7.125 1.16565 6.91406C1.40002 6.67969 1.66956 6.5625 1.97424 6.5625H7.03674V1.5C7.03674 1.19531 7.14221 0.9375 7.35315 0.726562C7.58752 0.492187 7.85706 0.375 8.16174 0.375H9.28674C9.59143 0.375 9.84924 0.492187 10.0602 0.726562C10.2946 0.9375 10.4117 1.19531 10.4117 1.5V6.5625H15.4742Z" fill="#484848"/>
</svg>
