<svg width="16" height="19" viewBox="0 0 16 19" fill="none" xmlns="http://www.w3.org/2000/svg">
<path d="M15.443 12.9766C15.6539 13.2109 15.7594 13.4688 15.7594 13.75C15.7594 14.0547 15.6539 14.3242 15.443 14.5586C15.2321 14.7695 14.9625 14.875 14.6344 14.875H1.1344C0.923462 14.875 0.724243 14.8281 0.536743 14.7344C0.372681 14.6172 0.243774 14.4766 0.150024 14.3125C0.0562744 14.125 0.00939941 13.9375 0.00939941 13.75C0.00939941 13.4688 0.114868 13.2109 0.325806 12.9766C0.349243 12.9531 0.384399 12.9062 0.431274 12.8359C0.782837 12.4844 1.05237 12.168 1.23987 11.8867C1.45081 11.6055 1.67346 11.0781 1.90784 10.3047C2.14221 9.50781 2.2594 8.59375 2.2594 7.5625C2.2594 6.20312 2.68127 5.01953 3.52502 4.01172C4.36877 3.00391 5.4469 2.37109 6.7594 2.11328V1.375C6.7594 1.07031 6.86487 0.8125 7.07581 0.601562C7.31018 0.367187 7.57971 0.25 7.8844 0.25C8.18909 0.25 8.4469 0.367187 8.65784 0.601562C8.89221 0.8125 9.0094 1.07031 9.0094 1.375V2.11328C9.87659 2.27734 10.65 2.61719 11.3297 3.13281C12.0094 3.64844 12.5367 4.29297 12.9117 5.06641C13.3102 5.83984 13.5094 6.67188 13.5094 7.5625C13.5094 8.59375 13.6266 9.50781 13.861 10.3047C14.0953 11.0781 14.3063 11.6055 14.4938 11.8867C14.7047 12.168 14.986 12.4844 15.3375 12.8359C15.3844 12.9062 15.4196 12.9531 15.443 12.9766ZM2.40002 13.1875H13.3688C12.3375 11.8047 11.8219 9.94141 11.8219 7.59766C11.8219 7.57422 11.8219 7.5625 11.8219 7.5625C11.8219 6.48437 11.4352 5.55859 10.6617 4.78516C9.88831 4.01172 8.96252 3.625 7.8844 3.625C6.80627 3.625 5.88049 4.01172 5.10706 4.78516C4.33362 5.55859 3.9469 6.48437 3.9469 7.5625C3.9469 7.5625 3.9469 7.57422 3.9469 7.59766C3.9469 9.94141 3.43127 11.8047 2.40002 13.1875ZM9.46643 17.582C9.02112 18.0273 8.49377 18.25 7.8844 18.25C7.27502 18.25 6.74768 18.0273 6.30237 17.582C5.85706 17.1602 5.6344 16.6328 5.6344 16H10.1344C10.1344 16.6328 9.91174 17.1602 9.46643 17.582Z" fill="#484848"/>
</svg>
