<svg width="18" height="18" viewBox="0 0 18 18" fill="none" xmlns="http://www.w3.org/2000/svg">
<path d="M16.9703 11.3594C17.1813 11.4531 17.2516 11.6172 17.1813 11.8516C16.7828 13.0938 16.1383 14.1953 15.2477 15.1562C15.1071 15.3203 14.943 15.3555 14.7555 15.2617L13.2438 14.3828C12.611 14.9219 11.8961 15.332 11.0992 15.6133V17.3359C11.0992 17.5703 10.9938 17.7109 10.7828 17.7578C9.49377 18.0391 8.21643 18.0391 6.95081 17.7578C6.71643 17.7109 6.59924 17.5703 6.59924 17.3359V15.6133C5.80237 15.332 5.08752 14.9219 4.45471 14.3828L2.97815 15.2617C2.76721 15.3555 2.59143 15.3203 2.45081 15.1562C1.56018 14.1953 0.915649 13.0938 0.517212 11.8516C0.446899 11.6406 0.517212 11.4766 0.728149 11.3594L2.20471 10.4805C2.1344 10.082 2.09924 9.67188 2.09924 9.25C2.09924 8.82812 2.1344 8.41797 2.20471 8.01953L0.728149 7.14062C0.517212 7.04688 0.446899 6.88281 0.517212 6.64844C0.915649 5.40625 1.56018 4.30469 2.45081 3.34375C2.59143 3.17969 2.76721 3.15625 2.97815 3.27344L4.45471 4.11719C5.08752 3.57813 5.80237 3.16797 6.59924 2.88672V1.16406C6.59924 0.929687 6.70471 0.789062 6.91565 0.742188C8.20471 0.460938 9.49377 0.460938 10.7828 0.742188C10.9938 0.789062 11.0992 0.929687 11.0992 1.16406V2.88672C11.8961 3.16797 12.611 3.57813 13.2438 4.11719L14.7203 3.23828C14.9313 3.14453 15.1071 3.17969 15.2477 3.34375C16.1383 4.30469 16.7828 5.40625 17.1813 6.64844C17.2516 6.88281 17.1813 7.04688 16.9703 7.14062L15.4938 8.01953C15.6344 8.83984 15.6344 9.66016 15.4938 10.4805L16.9703 11.3594ZM6.84534 11.2539C7.40784 11.793 8.07581 12.0625 8.84924 12.0625C9.62268 12.0625 10.2789 11.793 10.818 11.2539C11.3805 10.6914 11.6617 10.0234 11.6617 9.25C11.6617 8.47656 11.3805 7.82031 10.818 7.28125C10.2789 6.71875 9.62268 6.4375 8.84924 6.4375C8.07581 6.4375 7.40784 6.71875 6.84534 7.28125C6.30627 7.82031 6.03674 8.47656 6.03674 9.25C6.03674 10.0234 6.30627 10.6914 6.84534 11.2539Z" fill="#484848"/>
</svg>
