<svg width="19" height="19" viewBox="0 0 19 19" fill="none" xmlns="http://www.w3.org/2000/svg">
<path d="M18.4977 14.1719C18.7555 14.4297 18.8844 14.7344 18.8844 15.0859C18.8844 15.4375 18.7555 15.7422 18.4977 16L16.6344 17.8633C16.4 18.1211 16.0953 18.25 15.7203 18.25C15.3688 18.25 15.0641 18.1211 14.8063 17.8633L10.693 13.75C10.2946 13.3516 10.0485 12.8711 9.95471 12.3086C9.86096 11.7461 9.94299 11.2305 10.2008 10.7617L6.43909 7H4.2594L0.884399 2.5L3.1344 0.25L7.6344 3.625V5.80469L11.3961 9.56641C11.8649 9.30859 12.3805 9.22656 12.943 9.32031C13.5055 9.41406 13.986 9.66016 14.3844 10.0586L18.4977 14.1719ZM12.5563 8.16016C12.2516 8.16016 11.9586 8.19531 11.6774 8.26562L8.79456 5.38281C8.77112 3.95312 9.25159 2.73438 10.236 1.72656C10.8688 1.09375 11.6071 0.660156 12.4508 0.425781C13.318 0.191406 14.1852 0.179688 15.0524 0.390625C15.2164 0.4375 15.3102 0.542969 15.3336 0.707031C15.3805 0.871094 15.3453 1 15.2281 1.09375L12.6266 3.73047L13.0133 6.12109L15.4039 6.50781L18.0406 3.90625C18.1578 3.78906 18.2867 3.75391 18.4274 3.80078C18.5914 3.82422 18.6969 3.91797 18.7438 4.08203C18.9547 4.92578 18.943 5.78125 18.7086 6.64844C18.4742 7.51562 18.0406 8.26562 17.4078 8.89844C16.9625 9.32031 16.4469 9.66016 15.861 9.91797L15.193 9.25C14.4664 8.52344 13.5875 8.16016 12.5563 8.16016ZM8.90002 11.043C8.73596 11.7695 8.79456 12.5078 9.07581 13.2578L4.71643 17.582C4.27112 18.0273 3.73206 18.25 3.09924 18.25C2.48987 18.25 1.96252 18.0273 1.51721 17.582C1.09534 17.1602 0.884399 16.6328 0.884399 16C0.884399 15.3906 1.10706 14.8633 1.55237 14.418L6.89612 9.03906L8.90002 11.043ZM2.53674 16.5977C2.70081 16.7617 2.90002 16.8438 3.1344 16.8438C3.36877 16.8438 3.56799 16.7617 3.73206 16.5977C3.89612 16.4336 3.97815 16.2344 3.97815 16C3.97815 15.7656 3.89612 15.5664 3.73206 15.4023C3.56799 15.2383 3.36877 15.1562 3.1344 15.1562C2.90002 15.1562 2.70081 15.2383 2.53674 15.4023C2.37268 15.5664 2.29065 15.7656 2.29065 16C2.29065 16.2344 2.37268 16.4336 2.53674 16.5977Z" fill="#484848"/>
</svg>
