<svg width="19" height="16" viewBox="0 0 19 16" fill="none" xmlns="http://www.w3.org/2000/svg">
<path d="M5.77112 0.515625L6.36877 1.07812C6.43909 1.17188 6.47424 1.27734 6.47424 1.39453C6.47424 1.48828 6.43909 1.58203 6.36877 1.67578L3.80237 4.20703L3.27502 4.76953C3.18127 4.83984 3.07581 4.875 2.95862 4.875C2.84143 4.875 2.73596 4.83984 2.64221 4.76953L0.989868 3.08203C0.896118 3.01172 0.849243 2.91797 0.849243 2.80078C0.849243 2.68359 0.896118 2.57813 0.989868 2.48438L1.51721 1.95703C1.61096 1.86328 1.71643 1.81641 1.83362 1.81641C1.95081 1.81641 2.04456 1.86328 2.11487 1.95703L2.92346 2.73047L5.17346 0.515625C5.24377 0.421875 5.33752 0.375 5.45471 0.375C5.5719 0.375 5.67737 0.421875 5.77112 0.515625ZM5.77112 6.10547L6.36877 6.70312C6.43909 6.77344 6.47424 6.86719 6.47424 6.98438C6.47424 7.10156 6.42737 7.20703 6.33362 7.30078L3.80237 9.83203L3.27502 10.3594C3.18127 10.4531 3.07581 10.5 2.95862 10.5C2.84143 10.5 2.73596 10.4531 2.64221 10.3594L0.989868 8.70703C0.896118 8.61328 0.849243 8.51953 0.849243 8.42578C0.849243 8.30859 0.896118 8.20312 0.989868 8.10938L1.51721 7.54688C1.61096 7.47656 1.71643 7.44141 1.83362 7.44141C1.95081 7.44141 2.04456 7.47656 2.11487 7.54688L2.92346 8.32031L5.17346 6.10547C5.24377 6.01172 5.33752 5.96484 5.45471 5.96484C5.5719 5.96484 5.67737 6.01172 5.77112 6.10547ZM1.86877 12.6797C2.22034 12.3516 2.63049 12.1875 3.09924 12.1875C3.56799 12.1875 3.96643 12.3516 4.29456 12.6797C4.62268 13.0078 4.78674 13.4062 4.78674 13.875C4.78674 14.3438 4.62268 14.7422 4.29456 15.0703C3.96643 15.3984 3.56799 15.5625 3.09924 15.5625C2.63049 15.5625 2.22034 15.3984 1.86877 15.0703C1.54065 14.7422 1.37659 14.3438 1.37659 13.875C1.37659 13.4062 1.54065 13.0078 1.86877 12.6797ZM18.2867 12.75C18.4508 12.75 18.5797 12.8086 18.6735 12.9258C18.7906 13.0195 18.8492 13.1484 18.8492 13.3125V14.4375C18.8492 14.6016 18.7906 14.7422 18.6735 14.8594C18.5797 14.9531 18.4508 15 18.2867 15H8.16174C7.99768 15 7.85706 14.9531 7.73987 14.8594C7.64612 14.7422 7.59924 14.6016 7.59924 14.4375V13.3125C7.59924 13.1484 7.64612 13.0195 7.73987 12.9258C7.85706 12.8086 7.99768 12.75 8.16174 12.75H18.2867ZM18.2867 1.5C18.4508 1.5 18.5797 1.55859 18.6735 1.67578C18.7906 1.76953 18.8492 1.89844 18.8492 2.0625V3.1875C18.8492 3.35156 18.7906 3.49219 18.6735 3.60938C18.5797 3.70313 18.4508 3.75 18.2867 3.75H8.16174C7.99768 3.75 7.85706 3.70313 7.73987 3.60938C7.64612 3.49219 7.59924 3.35156 7.59924 3.1875V2.0625C7.59924 1.89844 7.64612 1.76953 7.73987 1.67578C7.85706 1.55859 7.99768 1.5 8.16174 1.5H18.2867ZM18.2867 7.125C18.4508 7.125 18.5797 7.18359 18.6735 7.30078C18.7906 7.39453 18.8492 7.52344 18.8492 7.6875V8.8125C18.8492 8.97656 18.7906 9.11719 18.6735 9.23438C18.5797 9.32812 18.4508 9.375 18.2867 9.375H8.16174C7.99768 9.375 7.85706 9.32812 7.73987 9.23438C7.64612 9.11719 7.59924 8.97656 7.59924 8.8125V7.6875C7.59924 7.52344 7.64612 7.39453 7.73987 7.30078C7.85706 7.18359 7.99768 7.125 8.16174 7.125H18.2867Z" fill="#484848"/>
</svg>
