<svg width="17" height="19" viewBox="0 0 17 19" fill="none" xmlns="http://www.w3.org/2000/svg">
<path d="M10.3961 14.875C10.1149 14.875 9.97424 14.7344 9.97424 14.4531V6.85938C9.97424 6.57812 10.1149 6.4375 10.3961 6.4375H11.2399C11.5211 6.4375 11.6617 6.57812 11.6617 6.85938V14.4531C11.6617 14.7344 11.5211 14.875 11.2399 14.875H10.3961ZM16.1617 3.0625C16.3258 3.0625 16.4547 3.12109 16.5485 3.23828C16.6656 3.33203 16.7242 3.46094 16.7242 3.625V4.1875C16.7242 4.35156 16.6656 4.49219 16.5485 4.60938C16.4547 4.70313 16.3258 4.75 16.1617 4.75H15.5992V16.5625C15.5992 17.0312 15.4352 17.4297 15.1071 17.7578C14.7789 18.0859 14.3805 18.25 13.9117 18.25H3.78674C3.31799 18.25 2.91956 18.0859 2.59143 17.7578C2.26331 17.4297 2.09924 17.0312 2.09924 16.5625V4.75H1.53674C1.37268 4.75 1.23206 4.70313 1.11487 4.60938C1.02112 4.49219 0.974243 4.35156 0.974243 4.1875V3.625C0.974243 3.46094 1.02112 3.33203 1.11487 3.23828C1.23206 3.12109 1.37268 3.0625 1.53674 3.0625H4.41956L5.61487 1.05859C5.75549 0.847656 5.96643 0.660156 6.24768 0.496094C6.52893 0.332031 6.81018 0.25 7.09143 0.25H10.6071C10.7946 0.25 10.9821 0.285156 11.1696 0.355469C11.3571 0.425781 11.5328 0.53125 11.6969 0.671875C11.861 0.789062 11.9899 0.917969 12.0836 1.05859L13.2789 3.0625H16.1617ZM7.02112 2.04297L6.38831 3.0625H11.3102L10.6774 2.04297C10.6305 1.97266 10.5719 1.9375 10.5016 1.9375H7.1969C7.12659 1.9375 7.06799 1.97266 7.02112 2.04297ZM13.9117 16.5625V4.75H3.78674V16.5625H13.9117ZM6.45862 14.875C6.17737 14.875 6.03674 14.7344 6.03674 14.4531V6.85938C6.03674 6.57812 6.17737 6.4375 6.45862 6.4375H7.30237C7.58362 6.4375 7.72424 6.57812 7.72424 6.85938V14.4531C7.72424 14.7344 7.58362 14.875 7.30237 14.875H6.45862Z" fill="#484848"/>
</svg>
