<svg width="23" height="19" viewBox="0 0 23 19" fill="none" xmlns="http://www.w3.org/2000/svg">
<path d="M9.1344 12.0625C9.1344 12.8359 8.68909 13.5039 7.79846 14.0664C6.93127 14.6055 5.87659 14.875 4.6344 14.875C3.39221 14.875 2.32581 14.6055 1.43518 14.0664C0.567993 13.5039 0.134399 12.8359 0.134399 12.0625C0.134399 12.0625 0.134399 12.0508 0.134399 12.0273C0.134399 11.8398 0.192993 11.6172 0.310181 11.3594C0.427368 11.0781 0.837524 10.2344 1.54065 8.82812C2.15002 7.60938 2.67737 6.55469 3.12268 5.66406C3.42737 5.05469 3.93127 4.75 4.6344 4.75C5.33752 4.75 5.84143 5.05469 6.14612 5.66406C6.61487 6.60156 7.15393 7.69141 7.76331 8.93359C8.44299 10.2695 8.84143 11.0664 8.95862 11.3242C9.07581 11.582 9.1344 11.8164 9.1344 12.0273C9.1344 12.0508 9.1344 12.0625 9.1344 12.0625ZM4.6344 6.4375L2.10315 11.5H7.16565L4.6344 6.4375ZM22.6344 12.0625C22.6344 12.5781 22.4352 13.0586 22.0367 13.5039C21.6383 13.9258 21.0875 14.2656 20.3844 14.5234C19.7047 14.7578 18.9547 14.875 18.1344 14.875C16.8922 14.875 15.8258 14.6055 14.9352 14.0664C14.068 13.5039 13.6344 12.8359 13.6344 12.0625C13.6344 12.0625 13.6344 12.0508 13.6344 12.0273C13.6344 11.8398 13.693 11.6172 13.8102 11.3594C13.9274 11.0781 14.3375 10.2344 15.0406 8.82812C15.1578 8.59375 15.2399 8.41797 15.2867 8.30078C15.3571 8.18359 15.4508 8.00781 15.568 7.77344C15.7086 7.51562 15.8258 7.29297 15.9196 7.10547C16.0133 6.91797 16.1188 6.69531 16.236 6.4375C16.3766 6.17969 16.5055 5.92187 16.6227 5.66406C16.9274 5.05469 17.4313 4.75 18.1344 4.75C18.8375 4.75 19.3414 5.05469 19.6461 5.66406C20.1149 6.60156 20.6539 7.69141 21.2633 8.93359C21.943 10.2695 22.3414 11.0664 22.4586 11.3242C22.5758 11.582 22.6344 11.8164 22.6344 12.0273C22.6344 12.0508 22.6344 12.0625 22.6344 12.0625ZM15.6031 11.5H20.6656L18.1344 6.4375L15.6031 11.5ZM18.6969 16C18.861 16 18.9899 16.0469 19.0836 16.1406C19.2008 16.2578 19.2594 16.3984 19.2594 16.5625V17.6875C19.2594 17.8516 19.2008 17.9805 19.0836 18.0742C18.9899 18.1914 18.861 18.25 18.6969 18.25H4.0719C3.90784 18.25 3.76721 18.1914 3.65002 18.0742C3.55627 17.9805 3.5094 17.8516 3.5094 17.6875V16.5625C3.5094 16.3984 3.55627 16.2578 3.65002 16.1406C3.76721 16.0469 3.90784 16 4.0719 16H10.2594V5.62891C9.36877 5.25391 8.82971 4.58594 8.64221 3.625H4.0719C3.90784 3.625 3.76721 3.57813 3.65002 3.48438C3.55627 3.36719 3.5094 3.22656 3.5094 3.0625V1.9375C3.5094 1.77344 3.55627 1.64453 3.65002 1.55078C3.76721 1.43359 3.90784 1.375 4.0719 1.375H9.1344C9.72034 0.625 10.4703 0.25 11.3844 0.25C12.2985 0.25 13.0485 0.625 13.6344 1.375H18.6969C18.861 1.375 18.9899 1.43359 19.0836 1.55078C19.2008 1.64453 19.2594 1.77344 19.2594 1.9375V3.0625C19.2594 3.22656 19.2008 3.36719 19.0836 3.48438C18.9899 3.57813 18.861 3.625 18.6969 3.625H14.1266C13.9391 4.58594 13.4 5.25391 12.5094 5.62891V16H18.6969Z" fill="#484848"/>
</svg>
